<svg xmlns="http://www.w3.org/2000/svg" width="240" height="240" viewBox="0 0 240 240" fill="none">
  <path d="M120 240C186.274 240 240 186.274 240 120C240 53.7258 186.274 0 120 0C53.7258 0 0 53.7258 0 120C0 186.274 53.7258 240 120 240Z" fill="#E6EDF5" fill-opacity="0.5"/>
  <path d="M120 220C175.228 220 220 175.228 220 120C220 64.7715 175.228 20 120 20C64.7715 20 20 64.7715 20 120C20 175.228 64.7715 220 120 220Z" fill="#E6EDF5"/>
  <path d="M120 90C133.255 90 144 79.2548 144 66C144 52.7452 133.255 42 120 42C106.745 42 96 52.7452 96 66C96 79.2548 106.745 90 120 90Z" fill="#1E3A5F"/>
  <path d="M120 100C93.49 100 72 121.49 72 148V160H168V148C168 121.49 146.51 100 120 100Z" fill="#1E3A5F"/>
  <path d="M160 130H80C77.2386 130 75 132.239 75 135V185C75 187.761 77.2386 190 80 190H160C162.761 190 165 187.761 165 185V135C165 132.239 162.761 130 160 130Z" fill="#1E3A5F"/>
  <path d="M155 140H85C83.8954 140 83 140.895 83 142V178C83 179.105 83.8954 180 85 180H155C156.105 180 157 179.105 157 178V142C157 140.895 156.105 140 155 140Z" fill="white"/>
  <path d="M120 170C122.761 170 125 167.761 125 165C125 162.239 122.761 160 120 160C117.239 160 115 162.239 115 165C115 167.761 117.239 170 120 170Z" fill="#1E3A5F"/>
  <path d="M120 160C126.627 160 132 154.627 132 148C132 141.373 126.627 136 120 136C113.373 136 108 141.373 108 148C108 154.627 113.373 160 120 160Z" fill="#1E3A5F"/>
</svg>
