<svg xmlns="http://www.w3.org/2000/svg" width="240" height="240" viewBox="0 0 240 240" fill="none">
  <path d="M120 240C186.274 240 240 186.274 240 120C240 53.7258 186.274 0 120 0C53.7258 0 0 53.7258 0 120C0 186.274 53.7258 240 120 240Z" fill="#E6EDF5" fill-opacity="0.5"/>
  <path d="M120 220C175.228 220 220 175.228 220 120C220 64.7715 175.228 20 120 20C64.7715 20 20 64.7715 20 120C20 175.228 64.7715 220 120 220Z" fill="#E6EDF5"/>
  <path d="M155 80H85C82.2386 80 80 82.2386 80 85V175C80 177.761 82.2386 180 85 180H155C157.761 180 160 177.761 160 175V85C160 82.2386 157.761 80 155 80Z" fill="#1E3A5F"/>
  <path d="M150 90H90C88.8954 90 88 90.8954 88 92V168C88 169.105 88.8954 170 90 170H150C151.105 170 152 169.105 152 168V92C152 90.8954 151.105 90 150 90Z" fill="white"/>
  <path d="M135 75H105C103.895 75 103 75.8954 103 77V77C103 78.1046 103.895 79 105 79H135C136.105 79 137 78.1046 137 77V77C137 75.8954 136.105 75 135 75Z" fill="#1E3A5F"/>
  <path d="M120 175C122.761 175 125 172.761 125 170C125 167.239 122.761 165 120 165C117.239 165 115 167.239 115 170C115 172.761 117.239 175 120 175Z" fill="#1E3A5F"/>
  <path d="M120 100C126.627 100 132 94.6274 132 88C132 81.3726 126.627 76 120 76C113.373 76 108 81.3726 108 88C108 94.6274 113.373 100 120 100Z" fill="#1E3A5F"/>
  <path d="M120 110C107.85 110 98 119.85 98 132V140H142V132C142 119.85 132.15 110 120 110Z" fill="#1E3A5F"/>
</svg>
