<svg xmlns="http://www.w3.org/2000/svg" width="240" height="240" viewBox="0 0 240 240" fill="none">
  <path d="M120 240C186.274 240 240 186.274 240 120C240 53.7258 186.274 0 120 0C53.7258 0 0 53.7258 0 120C0 186.274 53.7258 240 120 240Z" fill="#E6EDF5" fill-opacity="0.5"/>
  <path d="M120 220C175.228 220 220 175.228 220 120C220 64.7715 175.228 20 120 20C64.7715 20 20 64.7715 20 120C20 175.228 64.7715 220 120 220Z" fill="#E6EDF5"/>
  <path d="M170 80H130V170H170C172.761 170 175 167.761 175 165V85C175 82.2386 172.761 80 170 80Z" fill="#1E3A5F"/>
  <path d="M130 80H90C87.2386 80 85 82.2386 85 85V165C85 167.761 87.2386 170 90 170H130V80Z" fill="#1E3A5F"/>
  <path d="M165 90H95C93.8954 90 93 90.8954 93 92V158C93 159.105 93.8954 160 95 160H165C166.105 160 167 159.105 167 158V92C167 90.8954 166.105 90 165 90Z" fill="white"/>
  <path d="M130 75H110C108.895 75 108 75.8954 108 77V77C108 78.1046 108.895 79 110 79H130C131.105 79 132 78.1046 132 77V77C132 75.8954 131.105 75 130 75Z" fill="#1E3A5F"/>
  <path d="M130 165C132.761 165 135 162.761 135 160C135 157.239 132.761 155 130 155C127.239 155 125 157.239 125 160C125 162.761 127.239 165 130 165Z" fill="#1E3A5F"/>
  <path d="M150 120C156.627 120 162 114.627 162 108C162 101.373 156.627 96 150 96C143.373 96 138 101.373 138 108C138 114.627 143.373 120 150 120Z" fill="#1E3A5F"/>
  <path d="M150 130C137.85 130 128 139.85 128 152V160H172V152C172 139.85 162.15 130 150 130Z" fill="#1E3A5F"/>
</svg>
