<svg xmlns="http://www.w3.org/2000/svg" width="240" height="240" viewBox="0 0 240 240" fill="none">
  <path d="M120 240C186.274 240 240 186.274 240 120C240 53.7258 186.274 0 120 0C53.7258 0 0 53.7258 0 120C0 186.274 53.7258 240 120 240Z" fill="#E6EDF5" fill-opacity="0.5"/>
  <path d="M120 220C175.228 220 220 175.228 220 120C220 64.7715 175.228 20 120 20C64.7715 20 20 64.7715 20 120C20 175.228 64.7715 220 120 220Z" fill="#E6EDF5"/>
  <path d="M160 80H80C77.2386 80 75 82.2386 75 85V175C75 177.761 77.2386 180 80 180H160C162.761 180 165 177.761 165 175V85C165 82.2386 162.761 80 160 80Z" fill="#1E3A5F"/>
  <path d="M155 90H85C83.8954 90 83 90.8954 83 92V168C83 169.105 83.8954 170 85 170H155C156.105 170 157 169.105 157 168V92C157 90.8954 156.105 90 155 90Z" fill="white"/>
  <path d="M120 175C122.761 175 125 172.761 125 170C125 167.239 122.761 165 120 165C117.239 165 115 167.239 115 170C115 172.761 117.239 175 120 175Z" fill="#1E3A5F"/>
  <path d="M120 140C126.627 140 132 134.627 132 128C132 121.373 126.627 116 120 116C113.373 116 108 121.373 108 128C108 134.627 113.373 140 120 140Z" fill="#1E3A5F"/>
  <path d="M120 60C126.627 60 132 54.6274 132 48C132 41.3726 126.627 36 120 36C113.373 36 108 41.3726 108 48C108 54.6274 113.373 60 120 60Z" fill="#1E3A5F"/>
  <path d="M120 70C107.85 70 98 79.85 98 92V100H142V92C142 79.85 132.15 70 120 70Z" fill="#1E3A5F"/>
  <path d="M120 150C107.85 150 98 159.85 98 172V180H142V172C142 159.85 132.15 150 120 150Z" fill="#1E3A5F"/>
</svg>
